<svg width="64" height="64" viewBox="0 0 64 64" fill="none" xmlns="http://www.w3.org/2000/svg">
<path d="M57.6 32C57.6 25.2105 54.9029 18.699 50.1019 13.8981C45.301 9.09714 38.7895 6.4 32 6.4C25.2105 6.4 18.699 9.09714 13.8981 13.8981C9.09714 18.699 6.4 25.2105 6.4 32C6.4 38.7895 9.09714 45.301 13.8981 50.1019C18.699 54.9029 25.2105 57.6 32 57.6C38.7895 57.6 45.301 54.9029 50.1019 50.1019C54.9029 45.301 57.6 38.7895 57.6 32ZM64 32C64 40.4869 60.6286 48.6263 54.6274 54.6274C48.6263 60.6286 40.4869 64 32 64C27.7977 64 23.6365 63.1723 19.7541 61.5641C15.8717 59.956 12.3441 57.5989 9.37258 54.6274C3.37142 48.6263 0 40.4869 0 32C0 23.5131 3.37142 15.3737 9.37258 9.37258C15.3737 3.37142 23.5131 0 32 0C36.2023 0 40.3635 0.827705 44.2459 2.43586C48.1283 4.04401 51.6559 6.40111 54.6274 9.37258C57.5989 12.3441 59.956 15.8717 61.5641 19.7541C63.1723 23.6365 64 27.7977 64 32ZM43.2 19.2C45.76 19.2 48 21.44 48 24C48 26.56 45.76 28.8 43.2 28.8C40.64 28.8 38.4 26.56 38.4 24C38.4 21.44 40.64 19.2 43.2 19.2ZM25.6 24C25.6 26.56 23.36 28.8 20.8 28.8C18.24 28.8 16 26.56 16 24C16 21.44 18.24 19.2 20.8 19.2C23.36 19.2 25.6 21.44 25.6 24ZM32 38.4C37.6 38.4 42.528 40.704 45.408 44.192L40.864 48.736C39.424 46.4 36 44.8 32 44.8C28 44.8 24.576 46.4 23.136 48.736L18.592 44.192C21.472 40.704 26.4 38.4 32 38.4Z" fill="black"/>
</svg>
