<svg width="64" height="64" fill="none" xmlns="http://www.w3.org/2000/svg"><path d="M55.75 25.24L34.65 4.031a5.58 5.58 0 00-7.911 0c-1.961 1.97-2.13 4.976-.682 7.123l-.03.147a39.3 39.3 0 01-10.71 20.115L5.64 41.144a5.64 5.64 0 000 7.953l5.275 5.302a5.571 5.571 0 007.912 0l1.318-1.326 9.231 9.279a5.571 5.571 0 007.912 0 5.65 5.65 0 000-7.953l-3.956-3.976 1.319-1.326a5.64 5.64 0 000-7.953l-.896-.9a38.938 38.938 0 0114.761-6.337l.15-.03a5.58 5.58 0 007.084-.685 5.65 5.65 0 000-7.953zM16.19 51.747a1.857 1.857 0 01-2.638 0l-5.275-5.302a1.88 1.88 0 010-2.65l9.231-9.279 7.912 7.953-9.23 9.278zm18.46 5.302a1.88 1.88 0 010 2.65 1.86 1.86 0 01-2.637 0l-9.23-9.278 2.637-2.65 9.23 9.278zm-6.593-11.93c.561-.563 1.4-1.426 2.725-2.563l1.231 1.238a1.88 1.88 0 010 2.651l-1.318 1.326-2.638-2.651zm.08-5.221l-8.071-8.113a43 43 0 009.08-17.383l16.285 16.37a42.631 42.631 0 00-17.294 9.126zm24.975-9.358a1.857 1.857 0 01-2.637 0L29.376 9.333a1.88 1.88 0 010-2.65 1.857 1.857 0 012.637 0l21.1 21.207c.726.73.726 1.92 0 2.65z" fill="#000"/><path d="M18.827 41.144a1.858 1.858 0 00-2.638 0l-2.637 2.651a1.881 1.881 0 000 2.65c.728.733 1.91.733 2.637 0l2.638-2.65a1.881 1.881 0 000-2.65zM43.216 0a1.87 1.87 0 00-1.865 1.875v3.748a1.87 1.87 0 001.865 1.875 1.87 1.87 0 001.865-1.875V1.875A1.87 1.87 0 0043.216 0zm14.919 14.996h-3.73a1.87 1.87 0 00-1.865 1.874 1.87 1.87 0 001.865 1.875h3.73A1.87 1.87 0 0060 16.87a1.87 1.87 0 00-1.865-1.874zM55.724 4.298a1.858 1.858 0 00-2.637 0l-3.73 3.749a1.881 1.881 0 000 2.65 1.856 1.856 0 002.637 0l3.73-3.748a1.881 1.881 0 000-2.651z" fill="#000"/></svg>