<svg width="64" height="64" fill="none" xmlns="http://www.w3.org/2000/svg"><path d="M22.4 31.2c-2.208 0-4 1.792-4 4s1.792 4 4 4 4-1.792 4-4-1.792-4-4-4zm19.2 0c-2.208 0-4 1.792-4 4s1.792 4 4 4 4-1.792 4-4-1.792-4-4-4zM32 0C14.336 0 0 14.336 0 32s14.336 32 32 32 32-14.336 32-32S49.664 0 32 0zm0 57.6C17.888 57.6 6.4 46.112 6.4 32c0-.928.064-1.856.16-2.752a32.197 32.197 0 0016.672-17.184C29.024 20.256 38.56 25.6 49.344 25.6c2.496 0 4.896-.288 7.2-.832A25.492 25.492 0 0157.6 32c0 14.112-11.488 25.6-25.6 25.6z" fill="#000"/></svg>