<svg width="65" height="64" fill="none" xmlns="http://www.w3.org/2000/svg"><path d="M60.083 6.165a16.565 16.565 0 00-5.43-3.821A16.144 16.144 0 0048.212 1c-2.213 0-4.404.457-6.443 1.344a16.565 16.565 0 00-5.43 3.82L3.688 40.458C1.323 42.961 0 46.317 0 49.811c0 3.494 1.323 6.85 3.688 9.354a12.256 12.256 0 007.116 3.71 12.07 12.07 0 007.834-1.532 2.034 2.034 0 001.373-.622l32.65-34.287a9.08 9.08 0 002.46-6.235 9.08 9.08 0 00-2.46-6.234 8.283 8.283 0 00-2.712-1.907 8.072 8.072 0 00-6.437 0 8.282 8.282 0 00-2.713 1.907L14.077 42.023a2.272 2.272 0 00-.614 1.558c0 .582.22 1.14.614 1.558.193.204.424.366.678.477a2.02 2.02 0 002.289-.477l26.714-28.057a4.138 4.138 0 011.357-.956 4.031 4.031 0 013.221 0c.51.222.971.547 1.357.956a4.536 4.536 0 011.23 3.117 4.536 4.536 0 01-1.23 3.116L18.524 56.051a8.283 8.283 0 01-2.713 1.907 8.072 8.072 0 01-6.436 0 8.283 8.283 0 01-2.713-1.907 9.08 9.08 0 01-2.46-6.234 9.08 9.08 0 012.46-6.234L39.31 9.282a12.423 12.423 0 014.073-2.867 12.106 12.106 0 014.832-1.009c1.66 0 3.304.343 4.833 1.009 1.53.665 2.915 1.64 4.073 2.867 2.364 2.503 3.688 5.859 3.688 9.353 0 3.494-1.324 6.85-3.688 9.354L27.439 59.156a2.272 2.272 0 00-.613 1.559c0 .582.22 1.14.613 1.558.194.204.424.366.679.477a2.02 2.02 0 001.61 0c.255-.111.485-.273.679-.477l29.676-31.17C63.236 27.768 65 23.294 65 18.635c0-4.658-1.764-9.132-4.917-12.47z" fill="#000"/></svg>