<svg width="64" height="64" fill="none" xmlns="http://www.w3.org/2000/svg"><path d="M57.6 32a25.6 25.6 0 10-51.2 0 25.6 25.6 0 0051.2 0zm6.4 0a32 32 0 11-64 0 32 32 0 0164 0zM43.2 19.2c2.56 0 4.8 2.24 4.8 4.8 0 2.56-2.24 4.8-4.8 4.8-2.56 0-4.8-2.24-4.8-4.8 0-2.56 2.24-4.8 4.8-4.8zM25.6 24c0 2.56-2.24 4.8-4.8 4.8-2.56 0-4.8-2.24-4.8-4.8 0-2.56 2.24-4.8 4.8-4.8 2.56 0 4.8 2.24 4.8 4.8zM32 38.4c5.6 0 10.528 2.304 13.408 5.792l-4.544 4.544C39.424 46.4 36 44.8 32 44.8c-4 0-7.424 1.6-8.864 3.936l-4.544-4.544C21.472 40.704 26.4 38.4 32 38.4z" fill="#000"/></svg>