<svg width="64" height="64" fill="none" xmlns="http://www.w3.org/2000/svg"><path d="M48.741 21.953l-2.764 2.764a16.718 16.718 0 01-15.885 24.67 16.721 16.721 0 01-12.194-26.688 16.72 16.72 0 0121.387-4.674l2.764-2.764a20.528 20.528 0 00-31.27 18.661A20.525 20.525 0 0030.078 53.22a20.529 20.529 0 0021.408-16.928 20.523 20.523 0 00-2.745-14.34zm-7.674 7.685l-3.322 3.307a6.461 6.461 0 11-6.69-6.69l3.321-3.308c-.997-.32-2.04-.483-3.087-.483a10.254 10.254 0 00-7.25 17.503 10.254 10.254 0 0017.028-10.33zm16.997-12.986L55.3 19.416a27.441 27.441 0 01-7.498 35.216A27.448 27.448 0 013.91 34.628a27.442 27.442 0 0121.665-28.76 27.449 27.449 0 0119.01 2.835l2.767-2.764A31.264 31.264 0 006.623 13.5 31.258 31.258 0 0029.35 63.94 31.264 31.264 0 0062 38.447a31.257 31.257 0 00-3.934-21.795h-.002zm-4.101.08l-3.614-.4-17.804 17.8a1.893 1.893 0 01-2.677-2.676L47.67 13.655l-.4-3.614L57.308 0l1.338 5.353L64 6.695 53.963 16.733z" fill="#000"/></svg>