<svg width="64" height="64" fill="none" xmlns="http://www.w3.org/2000/svg"><path d="M16.957 44.8h21.06v6.4h-21.06v-6.4zm0-12.8h30.086v6.4H16.957V32zm0-12.8h30.086v6.4H16.957v-6.4zM53.06 6.4H40.484C39.22 2.688 35.911 0 32 0c-3.911 0-7.22 2.688-8.484 6.4H10.94c-.421 0-.812.032-1.203.128-1.174.256-2.227.896-3.039 1.76a6.448 6.448 0 00-1.294 2.048 6.501 6.501 0 00-.48 2.464v44.8c0 .864.18 1.728.48 2.496.301.768.753 1.44 1.294 2.048.812.864 1.865 1.504 3.039 1.76A7.35 7.35 0 0010.94 64h42.12c3.31 0 6.017-2.88 6.017-6.4V12.8c0-3.52-2.708-6.4-6.017-6.4zM32 5.6c1.233 0 2.256 1.088 2.256 2.4 0 1.312-1.023 2.4-2.256 2.4-1.233 0-2.256-1.088-2.256-2.4 0-1.312 1.023-2.4 2.256-2.4zm21.06 52H10.94V12.8h42.12v44.8z" fill="#000"/></svg>