<svg width="64" height="64" fill="none" xmlns="http://www.w3.org/2000/svg"><path d="M53.778 6.4H49.41V0h-3.708v6.4H18.298V0H14.59v6.4h-4.368a6.17 6.17 0 00-2.391.502 6.238 6.238 0 00-2.019 1.393 6.334 6.334 0 00-1.336 2.072 6.4 6.4 0 00-.45 2.433L4 57.6a6.42 6.42 0 00.46 2.435 6.36 6.36 0 001.343 2.071A6.266 6.266 0 007.827 63.5a6.196 6.196 0 002.395.501h43.556a6.247 6.247 0 004.413-1.9A6.417 6.417 0 0060 57.6V12.8a6.417 6.417 0 00-1.809-4.5 6.247 6.247 0 00-4.413-1.9zm2.513 53.866H7.709V16.041h48.582v44.225z" fill="#000"/></svg>