<svg width="64" height="64" fill="none" xmlns="http://www.w3.org/2000/svg"><path d="M30.688 62.126l-28.8-28.8A6.331 6.331 0 010 28.8V6.4A6.4 6.4 0 016.4 0h22.4a6.439 6.439 0 014.53 1.872l28.784 28.782A6.407 6.407 0 0164 35.2a6.445 6.445 0 01-1.872 4.527l-22.4 22.399A6.404 6.404 0 0135.2 64a6.362 6.362 0 01-4.512-1.874zm6.299-16.711l2.463-2.457-2.64-2.647 3.542-3.532-2.336-2.343-3.541 3.532-1.819-1.826 4.336-4.327a7.913 7.913 0 002.105-3.428 6.52 6.52 0 00-.022-3.733 8.212 8.212 0 00-2.154-3.479 8.357 8.357 0 00-3.48-2.17 6.595 6.595 0 00-3.733-.038 7.853 7.853 0 00-3.435 2.087l-5.533 5.522-1.268 1.266 8.39 8.407-2.091 2.087 2.34 2.343 2.086-2.087 1.823 1.824-2.09 2.088 2.337 2.342 2.09-2.087 2.63 2.656zM6.4 11.2a4.8 4.8 0 109.6.001 4.8 4.8 0 00-9.6-.001zm17.807 16.55l4.472-4.46a3.65 3.65 0 011.8-1.03 3.602 3.602 0 012.025.135c.736.273 1.4.71 1.944 1.276a5.104 5.104 0 011.26 1.938c.239.646.283 1.348.127 2.02a3.72 3.72 0 01-1.038 1.793l-.889.889-3.58 3.57-6.121-6.132z" fill="#000"/></svg>