<svg width="64" height="64" fill="none" xmlns="http://www.w3.org/2000/svg"><path d="M26.766 46.933a2.511 2.511 0 01-1.805-.728L14.6 35.936a2.47 2.47 0 010-3.515c.98-.97 2.566-.97 3.546 0l8.623 8.548 20.15-19.974a2.522 2.522 0 013.546 0 2.47 2.47 0 010 3.514L28.578 46.205c-.5.496-1.157.738-1.812.728z" fill="#000"/><path fill-rule="evenodd" clip-rule="evenodd" d="M32 64c17.673 0 32-14.327 32-32C64 14.327 49.673 0 32 0 14.327 0 0 14.327 0 32c0 17.673 14.327 32 32 32zm25.6-32c0 14.139-11.462 25.6-25.6 25.6C17.861 57.6 6.4 46.138 6.4 32 6.4 17.861 17.861 6.4 32 6.4c14.139 0 25.6 11.461 25.6 25.6z" fill="#000"/></svg>