<svg width="64" height="64" fill="none" xmlns="http://www.w3.org/2000/svg"><path d="M47.158 4a4 4 0 014-4H60a4 4 0 014 4v8.842a4 4 0 01-4 4h-8.842a4 4 0 01-4-4V4zm0 23.579a4 4 0 014-4H60a4 4 0 014 4v8.842a4 4 0 01-4 4h-8.842a4 4 0 01-4-4V27.58zm0 23.579a4 4 0 014-4H60a4 4 0 014 4V60a4 4 0 01-4 4h-8.842a4 4 0 01-4-4v-8.842zM23.579 4a4 4 0 014-4h8.842a4 4 0 014 4v8.842a4 4 0 01-4 4h-8.842a4 4 0 01-4-4V4zm0 23.579a4 4 0 014-4h8.842a4 4 0 014 4v8.842a4 4 0 01-4 4h-8.842a4 4 0 01-4-4V27.58zm0 23.579a4 4 0 014-4h8.842a4 4 0 014 4V60a4 4 0 01-4 4h-8.842a4 4 0 01-4-4v-8.842zM0 4a4 4 0 014-4h8.842a4 4 0 014 4v8.842a4 4 0 01-4 4H4a4 4 0 01-4-4V4zm0 23.579a4 4 0 014-4h8.842a4 4 0 014 4v8.842a4 4 0 01-4 4H4a4 4 0 01-4-4V27.58zm0 23.579a4 4 0 014-4h8.842a4 4 0 014 4V60a4 4 0 01-4 4H4a4 4 0 01-4-4v-8.842z" fill="#000"/></svg>