<svg width="64" height="64" fill="none" xmlns="http://www.w3.org/2000/svg"><g clip-path="url(#clip0)" fill="#008733"><path d="M49.667 34.667a16.12 16.12 0 01-.52 2.56 17.333 17.333 0 01-4 6.986l-11.48 11.6-1.187 1.214-1.2-1.214L19.813 44.2h.174a17.333 17.333 0 01-4-6.987 18.667 18.667 0 01-.574-3c-.226.986-.364 1.99-.413 3v1.027a17.574 17.574 0 004 11.213l1.507 1.627 12 12.92 12.226-13.173 1-1.054A17.693 17.693 0 0050 38.24v-1.027a15.998 15.998 0 00-.333-2.546zm-.107-13.534v-.16l-1.733 1.694-.96.96h3.04a17.187 17.187 0 00-.347-2.494z"/><path d="M44.947 12.52l-1.72.373L44.72 14.4l.947.947-.934.933-1.626 1.653-.214.2L40.987 20l-.934.947L25.907 35.28l-.24.213-1.867-1.906c-.43-.44-.828-.913-1.187-1.414l11.2-11.306 6-6.04.107-.107 1.333 1.333c.316.318.614.651.894 1l1.653-1.72-1.493-1.506-1.734-1.734L43 11.587l.813-.174L32.52 0 20.8 11.813l-.307.294-.6.6-.28.306a17.667 17.667 0 00.28 23.907c.196.213.396.413.6.6L31.16 48.293V41.04l-1.747-1.773 2.08-2.094 5.56-5.6 1.507-1.493 4.773-4.747.494-.493.933-.947.213-.213 1.88-1.907 1.64-1.64.6-.613.334-.32.933.947 2.133 2.146L55 10.387 44.947 12.52zM32.52 7.253l3.627 3.654-1.467 1.48L20.333 26.8c-.118-.66-.176-1.33-.173-2A12.493 12.493 0 0123.8 16l8.72-8.747z"/><path d="M37.04 41.773V37.84h-4.52v11.787l4.52-4.56v-3.294zm5.893-9.906v-.454h-4.52v12.28l4.52-4.56v-7.266zm1.72-6.894V37.4c.16-.142.32-.302.48-.48a17.546 17.546 0 004.814-12h-5.334l.04.053z"/></g><defs><clipPath id="clip0"><path fill="#fff" d="M0 0h64v64H0z"/></clipPath></defs></svg>