<svg width="64" height="64" fill="none" xmlns="http://www.w3.org/2000/svg"><path d="M17.389 48.956c-4.212-4.816-2.695-12.106-2.625-12.41l.362-1.684.233 1.71c.695 5.125 14.73 17.576 16.561 19.181 1.86-1.6 16.13-14.046 16.562-19.166l.144-1.725.447 1.67c.084.31 1.994 7.639-2.506 12.494-.268.29-13.832 14.16-14.413 14.754l-.22.22-14.546-15.044zm.362-14.135a14.51 14.51 0 01-3.344-9.722 15.523 15.523 0 013.344-9.936C18.644 14.04 31.997 0 31.997 0s13.35 14.056 14.13 15.163a15.895 15.895 0 013.473 9.936 15.182 15.182 0 01-3.542 9.792c-.869 1.236-14.061 14.583-14.061 14.583S18.659 35.872 17.75 34.82zm10.656 4.228l3.464 3.453 10.454-10.42a7.287 7.287 0 001.414-2.054c.124-.248.228-.504.328-.762.236-.64.42-1.298.55-1.968.08-.39.14-.774.184-1.142a17.763 17.763 0 00.1-3.55L28.406 39.048zm-6.826-7.12l3.463 3.453 17.434-17.385-3.463-3.453L21.581 31.93zM21.635 18c-3.18 3.17-2.456 9.357-2.456 9.357l16.368-16.323-3.463-3.452L21.635 18z" fill="#000"/></svg>